<svg width="24" height="24" viewBox="0 0 24 24" fill="none" xmlns="http://www.w3.org/2000/svg">
<path d="M11.67 18.795C11.459 19.0057 11.1731 19.124 10.875 19.124C10.5769 19.124 10.2909 19.0057 10.08 18.795L3.70499 12.42C3.49431 12.2091 3.37598 11.9231 3.37598 11.625C3.37598 11.3269 3.49431 11.041 3.70499 10.83L10.08 4.45501C10.2932 4.25605 10.5754 4.14766 10.8669 4.1527C11.1585 4.15773 11.4368 4.2758 11.643 4.48201C11.8492 4.68823 11.9673 4.96647 11.9723 5.25806C11.9773 5.54964 11.869 5.83179 11.67 6.04501L7.21499 10.5L18.375 10.5C18.6734 10.5 18.9595 10.6185 19.1705 10.8295C19.3815 11.0405 19.5 11.3266 19.5 11.625C19.5 11.9234 19.3815 12.2095 19.1705 12.4205C18.9595 12.6315 18.6734 12.75 18.375 12.75H7.21499L11.67 17.205C11.8807 17.416 11.999 17.7019 11.999 18C11.999 18.2981 11.8807 18.5841 11.67 18.795Z" fill="#474646"/>
</svg>
