<svg width="40" height="40" viewBox="0 0 40 40" fill="none" xmlns="http://www.w3.org/2000/svg">
<path fill-rule="evenodd" clip-rule="evenodd" d="M16.6667 3.75C16.1145 3.74973 15.5736 3.90621 15.1069 4.20125C14.6401 4.49629 14.2667 4.91776 14.0301 5.41667C12.8901 5.42667 12.0034 5.47833 11.2101 5.78833C10.263 6.15879 9.43937 6.78835 8.83339 7.605C8.22172 8.42667 7.93339 9.48333 7.54005 10.935L7.46172 11.2183L6.60672 16.1583C6.29839 16.3717 6.03005 16.625 5.79672 16.9233C4.29505 18.845 5.01005 21.7067 6.44005 27.425C7.34839 31.0633 7.80339 32.8817 9.16005 33.9417C10.5167 35 12.3917 35 16.1417 35H23.8584C27.6084 35 29.4834 35 30.8401 33.9417C32.1967 32.8817 32.6501 31.0633 33.5601 27.425C34.9901 21.705 35.7051 18.8467 34.2034 16.9233C33.9738 16.6276 33.7001 16.369 33.3917 16.1567L32.5367 11.22L32.4601 10.9367C32.0651 9.48333 31.7767 8.42667 31.1667 7.60333C30.5605 6.7873 29.7369 6.15833 28.7901 5.78833C27.9967 5.47833 27.1084 5.42667 25.9701 5.41833C25.7336 4.91912 25.3603 4.4973 24.8936 4.20195C24.4268 3.90661 23.8858 3.74988 23.3334 3.75H16.6667ZM30.6967 15.2433L30.0934 11.7633C29.6217 10.03 29.4501 9.485 29.1601 9.095C28.8337 8.65518 28.3901 8.31613 27.8801 8.11667C27.5134 7.97333 27.0701 7.93167 25.9667 7.92C25.7298 8.41777 25.3567 8.83821 24.8907 9.1326C24.4246 9.42699 23.8846 9.58327 23.3334 9.58333H16.6667C16.1155 9.58327 15.5755 9.42699 15.1094 9.1326C14.6434 8.83821 14.2703 8.41777 14.0334 7.92C12.9284 7.93167 12.4867 7.97333 12.1201 8.11667C11.61 8.31613 11.1664 8.65518 10.8401 9.095C10.5501 9.485 10.3784 10.0283 9.90672 11.7617L9.30339 15.2433C10.9667 15 13.1834 15 16.1417 15H23.8584C26.8167 15 29.0334 15 30.6967 15.2433ZM13.3334 20.4167C13.6649 20.4167 13.9829 20.5484 14.2173 20.7828C14.4517 21.0172 14.5834 21.3351 14.5834 21.6667V28.3333C14.5834 28.6649 14.4517 28.9828 14.2173 29.2172C13.9829 29.4516 13.6649 29.5833 13.3334 29.5833C13.0019 29.5833 12.6839 29.4516 12.4495 29.2172C12.2151 28.9828 12.0834 28.6649 12.0834 28.3333V21.6667C12.0834 21.3351 12.2151 21.0172 12.4495 20.7828C12.6839 20.5484 13.0019 20.4167 13.3334 20.4167ZM27.9167 21.6667C27.9167 21.3351 27.785 21.0172 27.5506 20.7828C27.3162 20.5484 26.9982 20.4167 26.6667 20.4167C26.3352 20.4167 26.0173 20.5484 25.7828 20.7828C25.5484 21.0172 25.4167 21.3351 25.4167 21.6667V28.3333C25.4167 28.6649 25.5484 28.9828 25.7828 29.2172C26.0173 29.4516 26.3352 29.5833 26.6667 29.5833C26.9982 29.5833 27.3162 29.4516 27.5506 29.2172C27.785 28.9828 27.9167 28.6649 27.9167 28.3333V21.6667ZM20.0001 20.4167C20.3316 20.4167 20.6495 20.5484 20.8839 20.7828C21.1184 21.0172 21.2501 21.3351 21.2501 21.6667V28.3333C21.2501 28.6649 21.1184 28.9828 20.8839 29.2172C20.6495 29.4516 20.3316 29.5833 20.0001 29.5833C19.6685 29.5833 19.3506 29.4516 19.1162 29.2172C18.8818 28.9828 18.7501 28.6649 18.7501 28.3333V21.6667C18.7501 21.3351 18.8818 21.0172 19.1162 20.7828C19.3506 20.5484 19.6685 20.4167 20.0001 20.4167Z" fill="#FC6559"/>
</svg>
